<?xml version="1.0" standalone="no"?>
<!DOCTYPE svg PUBLIC "-//W3C//DTD SVG 20010904//EN"
 "http://www.w3.org/TR/2001/REC-SVG-20010904/DTD/svg10.dtd">
<svg version="1.0" xmlns="http://www.w3.org/2000/svg"
 width="16.000000pt" height="16.000000pt" viewBox="0 0 16.000000 16.000000"
 preserveAspectRatio="xMidYMid meet">
<metadata>
Created by potrace 1.11, written by Peter Selinger 2001-2013
</metadata>
<g transform="translate(0.000000,16.000000) scale(0.002286,-0.002286)"
fill="#000000" stroke="none">
<path d="M3150 6988 c0 -5 4 -7 8 -4 4 2 14 1 22 -4 8 -5 -1 -8 -26 -7 -21 1
-42 7 -46 12 -5 6 -8 6 -8 -1 0 -7 -24 -12 -62 -13 -35 -1 -64 -6 -66 -11 -2
-6 -8 -10 -13 -10 -6 0 -8 4 -5 8 2 4 -6 8 -19 8 -13 0 -21 -4 -19 -8 3 -4 -6
-9 -20 -9 -38 -2 -44 -3 -51 -11 -4 -4 -16 -3 -26 2 -12 7 -20 7 -24 0 -3 -5
-1 -10 6 -10 7 0 9 -3 5 -7 -4 -5 -14 1 -22 11 -14 20 -14 20 -14 0 0 -16 -8
-19 -47 -20 -26 -1 -49 -6 -51 -13 -2 -6 -8 -11 -13 -11 -6 0 -7 6 -3 13 6 10
4 10 -7 0 -7 -7 -21 -13 -31 -13 -10 0 -29 -7 -42 -16 -16 -10 -26 -12 -31 -4
-4 7 -12 5 -22 -5 -10 -11 -19 -13 -27 -6 -7 6 -17 6 -26 1 -12 -8 -12 -10 4
-10 27 0 14 -10 -20 -16 -16 -3 -31 -8 -34 -12 -3 -4 -16 -8 -30 -10 -53 -6
-65 -10 -63 -21 2 -6 -9 -11 -23 -11 -14 0 -22 -4 -19 -10 3 -6 -1 -7 -9 -4
-9 3 -16 2 -16 -4 0 -5 -13 -9 -29 -8 -20 1 -27 -2 -24 -11 5 -13 -4 -15 -54
-16 -28 -1 -19 -17 9 -17 32 0 17 -9 -20 -12 -17 -1 -34 -8 -36 -15 -3 -7 -12
-10 -21 -7 -8 3 -15 1 -15 -6 0 -6 -5 -8 -12 -4 -8 5 -9 2 -5 -10 6 -14 3 -16
-13 -11 -14 5 -20 2 -20 -9 0 -10 -9 -16 -21 -16 -12 0 -28 -8 -36 -17 -10
-12 -12 -13 -8 -3 4 8 -1 6 -9 -4 -9 -11 -16 -23 -16 -27 0 -3 -11 -5 -24 -4
-19 2 -23 -1 -19 -13 5 -11 2 -14 -10 -9 -9 3 -17 2 -17 -4 0 -6 -6 -7 -12 -3
-10 6 -10 5 -1 -7 11 -14 9 -16 -17 -14 -16 1 -27 -2 -24 -7 3 -4 -2 -11 -10
-14 -9 -3 -16 -13 -16 -21 0 -8 -3 -12 -8 -9 -9 6 -50 -16 -54 -29 -2 -5 -6
-9 -10 -8 -5 2 -8 -4 -8 -12 0 -9 -6 -12 -15 -9 -9 4 -15 0 -15 -10 0 -9 -6
-16 -14 -16 -8 0 -18 -5 -22 -12 -5 -7 -2 -8 7 -3 8 4 4 -2 -8 -14 -12 -11
-27 -21 -33 -21 -5 0 -10 -7 -10 -16 0 -10 -6 -14 -15 -10 -8 3 -14 2 -14 -2
1 -4 1 -14 0 -22 -1 -13 -2 -13 -11 0 -8 12 -10 11 -10 -7 0 -14 -6 -23 -15
-23 -8 0 -15 -7 -15 -15 0 -7 -7 -18 -16 -23 -9 -5 -15 -13 -15 -18 1 -5 -3
-9 -7 -9 -16 0 -42 -34 -42 -54 0 -13 -6 -21 -16 -21 -10 0 -14 -6 -11 -14 3
-8 -2 -16 -15 -19 -11 -3 -17 -10 -13 -16 3 -6 1 -11 -5 -11 -6 0 -15 -11 -20
-25 -5 -14 -14 -25 -20 -25 -5 0 -10 -11 -10 -25 0 -14 -6 -25 -14 -25 -8 0
-12 -9 -11 -24 2 -18 -1 -23 -11 -19 -10 4 -14 -3 -15 -23 -1 -16 -1 -33 0
-38 1 -5 -4 -4 -11 2 -11 9 -14 5 -16 -21 -2 -17 -9 -38 -17 -47 -8 -9 -15
-24 -15 -33 0 -9 -7 -17 -15 -17 -11 0 -14 -7 -11 -25 3 -14 1 -23 -4 -20 -4
3 -11 -2 -14 -11 -3 -8 -2 -12 4 -9 5 3 3 -6 -5 -21 -7 -15 -11 -33 -7 -42 4
-12 1 -14 -13 -9 -15 6 -16 5 -5 -8 8 -10 9 -15 1 -15 -6 0 -11 -13 -11 -30 0
-19 -5 -30 -14 -30 -8 0 -12 -9 -11 -25 2 -14 -2 -25 -8 -25 -7 0 -6 -5 3 -10
13 -9 13 -12 -3 -21 -13 -8 -15 -14 -7 -29 13 -24 13 -40 0 -20 -7 11 -10 1
-11 -35 -1 -27 -1 -56 0 -64 2 -7 -1 -11 -6 -8 -5 3 -9 -3 -9 -13 0 -10 3 -17
6 -15 4 2 7 -2 7 -10 0 -8 -4 -12 -9 -9 -10 7 -10 8 -12 -169 0 -82 3 -151 7
-154 4 -3 2 -12 -5 -20 -15 -18 -14 -23 2 -33 9 -6 9 -13 1 -28 -8 -15 -8 -23
1 -28 6 -4 8 -3 4 4 -3 6 -2 13 3 16 10 7 9 -20 -2 -30 -4 -4 -7 -12 -7 -18 0
-6 5 -4 10 4 7 11 10 -5 10 -52 0 -48 4 -68 13 -68 7 0 8 -3 2 -8 -9 -6 -11
-22 -5 -47 1 -5 2 -13 1 -17 0 -5 3 -8 7 -8 5 0 9 -14 10 -31 0 -17 9 -38 19
-46 17 -14 17 -14 -5 -10 -12 3 -20 1 -16 -4 3 -5 12 -9 21 -9 9 0 13 -6 9
-15 -3 -8 -1 -15 4 -15 5 0 6 -7 3 -17 -4 -11 -3 -14 5 -9 8 5 12 -5 13 -31 1
-21 1 -42 0 -47 -1 -5 6 -3 15 5 16 13 16 12 6 -8 -8 -14 -8 -23 -1 -25 5 -2
11 -13 12 -25 0 -12 4 -20 8 -17 4 2 13 -4 20 -13 10 -12 10 -14 2 -9 -7 4
-13 3 -13 -2 0 -6 7 -12 15 -16 8 -3 12 -12 9 -20 -3 -9 3 -20 15 -28 13 -8
21 -23 21 -41 0 -15 4 -26 9 -23 8 5 25 -29 22 -46 -1 -5 4 -8 9 -8 6 0 10
-11 10 -25 0 -14 4 -25 10 -25 5 0 6 7 3 17 -4 11 -3 14 5 9 7 -4 12 -18 12
-32 0 -14 6 -24 15 -24 9 0 12 -6 9 -15 -4 -10 0 -15 12 -15 16 0 17 -2 4 -10
-12 -7 -8 -10 14 -10 28 0 29 -1 10 -15 -17 -13 -17 -14 -1 -15 9 0 17 -7 17
-15 0 -8 7 -15 15 -15 8 0 14 -3 14 -7 -1 -5 -1 -17 1 -28 l1 -20 9 20 c8 19
9 19 9 -2 1 -17 5 -21 18 -16 10 4 14 2 9 -5 -3 -6 -2 -13 4 -17 6 -4 8 -11 5
-16 -4 -5 1 -9 9 -9 9 0 16 -5 16 -10 0 -6 11 -15 25 -20 14 -5 25 -14 25 -20
0 -5 7 -10 15 -10 8 0 15 -9 15 -19 0 -11 5 -23 12 -27 7 -5 8 -3 3 5 -5 9 -1
9 14 -1 12 -7 21 -20 21 -29 0 -12 6 -16 20 -12 14 4 20 1 18 -8 -2 -8 3 -13
9 -12 7 2 12 -2 10 -9 -1 -6 7 -14 18 -16 11 -2 25 -9 30 -14 7 -8 6 -8 -4 -3
-9 5 -12 4 -7 -3 4 -7 16 -12 27 -12 10 0 19 -7 19 -15 0 -8 6 -14 13 -12 6 1
11 -4 9 -12 -3 -12 0 -12 13 -1 13 11 15 10 10 -3 -4 -8 -2 -18 4 -22 6 -3 11
-1 11 4 0 6 5 11 11 11 6 0 9 -7 5 -15 -4 -11 2 -15 20 -15 13 0 27 -7 30 -15
4 -8 15 -15 25 -15 13 0 17 -5 12 -17 -5 -12 -2 -15 10 -10 9 3 23 -1 32 -9 8
-8 24 -16 35 -17 22 -1 27 -13 8 -20 -7 -3 2 -4 20 -2 23 3 32 -1 32 -11 0 -8
4 -12 10 -9 6 3 10 1 10 -4 0 -6 3 -10 8 -10 21 4 32 -2 26 -13 -5 -8 0 -7 11
2 11 9 16 10 11 3 -7 -13 8 -17 44 -14 12 1 11 -2 -3 -13 -16 -13 -16 -14 10
-15 62 -2 72 -5 62 -17 -6 -8 -1 -11 18 -10 19 0 27 -4 25 -14 -3 -11 0 -11
14 1 12 9 15 9 10 2 -7 -12 16 -18 49 -14 6 1 2 -5 -8 -13 -16 -13 -16 -14 8
-15 56 -4 63 -6 59 -13 -5 -7 10 -12 29 -9 4 1 10 -6 13 -14 4 -9 19 -15 40
-15 24 0 34 -5 34 -16 0 -8 4 -13 10 -9 5 3 19 -4 31 -16 13 -13 20 -16 17 -7
-4 9 0 15 8 15 8 0 14 -6 14 -14 0 -8 12 -13 32 -13 30 0 31 -1 12 -15 -18
-14 -18 -14 3 -8 13 3 34 -2 48 -11 13 -9 33 -16 44 -16 11 0 21 -5 23 -10 2
-6 17 -12 33 -14 17 -2 33 -4 38 -5 4 0 7 -5 7 -11 0 -5 -8 -7 -17 -3 -10 3
-15 3 -11 -2 4 -4 26 -9 48 -10 22 -1 44 -6 48 -10 4 -5 -1 -5 -11 -2 -11 4
-16 3 -12 -3 3 -6 19 -10 36 -10 21 0 29 -5 29 -17 0 -15 2 -16 10 -3 6 10 10
11 10 3 0 -7 5 -13 11 -13 7 0 18 -8 26 -17 14 -17 14 -17 9 0 -3 9 -1 17 4
17 6 0 10 -6 10 -14 0 -8 8 -13 18 -12 10 0 16 -5 14 -13 -3 -12 0 -12 12 -1
11 8 16 9 16 1 0 -6 13 -11 29 -11 17 0 33 -4 36 -10 4 -6 -1 -7 -12 -3 -13 4
-15 3 -8 -5 6 -6 27 -12 48 -14 20 -1 37 -6 37 -11 0 -5 -7 -6 -16 -3 -8 3
-12 2 -9 -4 3 -5 19 -7 36 -5 23 3 29 0 25 -10 -3 -10 0 -12 11 -8 10 4 14 2
10 -4 -4 -6 -1 -11 6 -10 32 1 48 -4 42 -13 -5 -8 49 -16 78 -11 5 1 6 -3 2
-9 -3 -6 -11 -7 -17 -4 -6 4 -8 3 -5 -3 3 -5 20 -9 38 -8 23 1 33 -3 36 -15 3
-12 13 -17 34 -15 23 2 27 0 19 -10 -8 -10 -2 -12 27 -12 27 1 38 -3 38 -13 0
-11 12 -15 41 -15 36 0 40 -3 37 -20 -4 -17 -3 -17 6 -5 7 10 11 11 11 3 0 -7
9 -13 21 -13 11 0 17 -4 14 -10 -3 -5 -2 -10 4 -10 5 0 12 6 14 13 4 9 6 9 6
0 1 -7 8 -13 16 -13 8 0 15 -6 15 -13 0 -11 19 -16 67 -20 7 0 10 -4 7 -8 -2
-4 0 -10 6 -14 5 -3 10 0 10 7 0 10 2 10 9 -1 5 -7 13 -11 19 -7 6 3 14 1 18
-5 5 -8 3 -9 -6 -4 -8 5 -11 4 -7 -2 4 -6 19 -11 33 -10 15 0 31 -8 36 -17 5
-9 17 -16 26 -16 10 0 24 -6 31 -12 8 -7 11 -8 8 -2 -3 6 0 11 8 11 8 0 14 -3
13 -6 -2 -19 4 -24 12 -11 8 13 10 12 10 -3 0 -10 4 -16 9 -13 5 4 11 1 13 -5
2 -6 16 -11 32 -11 20 0 26 -4 21 -16 -4 -12 -3 -12 9 -3 10 8 15 9 18 1 2 -6
18 -12 36 -12 22 -1 29 -4 20 -9 -13 -8 3 -13 40 -12 6 1 12 -5 12 -13 0 -13
16 -18 52 -15 9 1 20 -3 24 -10 4 -7 3 -9 -4 -5 -6 3 -13 3 -16 -2 -3 -5 0 -9
7 -9 43 -3 80 -11 85 -20 4 -5 13 -12 21 -14 8 -3 16 -20 18 -39 2 -19 9 -37
16 -41 6 -4 12 -22 12 -41 0 -18 5 -39 12 -46 10 -10 10 -18 2 -34 -8 -15 -8
-19 0 -13 8 5 11 -33 9 -138 -2 -80 -7 -145 -12 -144 -12 3 -16 -32 -4 -39 7
-4 1 -15 -13 -26 -13 -11 -18 -17 -11 -13 6 3 12 1 12 -4 0 -6 -8 -11 -17 -12
-15 0 -15 -2 2 -9 19 -8 19 -9 1 -9 -14 -1 -16 -4 -8 -14 11 -13 -9 -52 -21
-40 -4 3 -7 -10 -7 -30 0 -20 -5 -39 -12 -43 -7 -5 -8 -2 -3 7 5 8 4 11 -1 6
-9 -9 -10 -13 -13 -42 0 -8 -8 -15 -17 -15 -8 0 -13 -4 -9 -9 3 -6 -2 -14 -11
-19 -9 -5 -15 -12 -15 -15 3 -22 0 -37 -8 -37 -15 0 -71 -53 -71 -67 0 -7 -6
-13 -14 -13 -8 0 -17 -7 -20 -16 -3 -9 -11 -12 -18 -8 -8 5 -9 2 -5 -9 3 -9 2
-19 -3 -22 -5 -3 -10 3 -13 12 -3 14 -6 11 -11 -10 -5 -16 -15 -27 -26 -27
-21 0 -43 -23 -32 -36 4 -4 0 -3 -8 3 -12 9 -21 6 -42 -12 -15 -13 -24 -26
-21 -29 4 -3 1 -6 -5 -6 -7 0 -12 6 -12 13 0 9 -2 9 -8 0 -4 -7 -19 -14 -32
-16 -13 -2 -26 -9 -28 -15 -2 -7 -15 -12 -28 -12 -13 0 -24 -6 -24 -13 0 -8
-11 -12 -29 -11 -16 1 -42 -4 -56 -12 -15 -8 -45 -14 -67 -14 -29 0 -37 -3
-32 -12 6 -10 4 -10 -7 -2 -16 13 -49 15 -49 2 0 -4 5 -8 12 -8 6 0 8 -3 4 -7
-4 -5 -13 -1 -19 7 -14 17 -37 24 -37 11 0 -5 6 -11 12 -13 7 -3 -20 -5 -60
-5 -59 0 -72 3 -73 16 0 14 -1 14 -7 0 -11 -24 -97 -26 -112 -2 -8 13 -10 13
-7 2 4 -13 -3 -16 -41 -15 -26 1 -47 6 -50 14 -2 6 -15 12 -28 12 -17 0 -23
-4 -18 -12 6 -11 4 -11 -7 0 -7 6 -24 12 -37 12 -13 0 -20 4 -17 10 3 6 -1 10
-10 10 -9 0 -14 -4 -11 -8 3 -5 -1 -9 -9 -9 -8 0 -13 5 -12 11 1 6 -4 10 -12
8 -7 -1 -20 3 -29 10 -12 10 -14 10 -8 1 5 -9 2 -11 -8 -7 -9 3 -13 11 -9 18
4 6 -2 4 -12 -4 -11 -9 -16 -10 -11 -3 5 10 -3 13 -29 13 -29 0 -36 3 -31 15
4 11 -2 15 -25 15 -18 0 -28 4 -24 10 3 5 -1 10 -10 10 -10 0 -14 -5 -10 -12
4 -7 -2 -2 -13 11 -15 19 -21 21 -26 10 -3 -8 -4 -4 -2 9 4 19 2 21 -10 11
-12 -10 -14 -4 -15 32 -1 24 -1 47 0 51 0 4 -6 5 -14 2 -12 -5 -15 3 -15 41 0
44 -1 46 -17 34 -14 -10 -13 -8 2 10 11 14 14 21 8 17 -9 -5 -13 0 -13 13 0
31 -2 35 -18 47 -12 9 -12 13 -2 19 9 6 11 4 5 -5 -5 -9 -4 -11 4 -6 6 4 9 12
5 17 -3 5 -9 7 -14 4 -5 -3 -11 -1 -15 5 -3 5 -1 10 6 10 7 0 8 4 2 13 -5 6
-9 24 -8 38 1 20 -3 25 -15 21 -13 -5 -13 -4 0 13 9 11 10 16 3 11 -10 -5 -13
4 -13 33 0 23 -4 41 -10 41 -5 0 -10 15 -10 34 0 21 -6 36 -15 40 -8 3 -15 11
-15 18 0 9 3 9 10 -2 5 -8 12 -12 15 -8 3 3 0 12 -8 19 -7 8 -12 20 -9 28 3 8
0 11 -7 7 -6 -4 -11 -4 -10 1 1 4 1 21 0 36 -1 20 -5 26 -13 21 -8 -5 -7 0 2
11 9 11 10 16 3 11 -10 -5 -13 4 -13 35 0 36 -2 40 -16 29 -12 -11 -15 -11
-12 0 2 10 -17 13 -84 14 -52 1 -84 -2 -81 -8 4 -5 1 -6 -7 -1 -19 12 -80 14
-73 2 4 -6 1 -7 -7 -2 -19 12 -129 12 -134 0 -3 -6 -5 -6 -5 0 -1 6 -25 9 -53
9 -39 -1 -52 -5 -50 -15 2 -11 -1 -10 -10 1 -7 9 -19 15 -25 14 -7 -1 -18 -2
-24 -3 -5 0 -7 -7 -4 -13 4 -7 1 -6 -7 2 -14 16 -36 19 -55 7 -8 -5 -13 -4
-13 2 0 12 -27 10 -47 -2 -6 -4 -14 -4 -17 1 -5 9 -47 9 -63 -1 -5 -4 -13 -4
-17 0 -8 8 -91 7 -105 -1 -6 -4 -11 -4 -11 1 0 4 -13 8 -30 9 -16 1 -27 -3
-23 -8 3 -6 -4 -5 -15 1 -16 9 -24 8 -36 -5 -12 -11 -16 -12 -16 -2 0 8 -14
13 -40 13 -22 1 -40 -3 -40 -8 0 -4 -6 -5 -12 -1 -17 11 -48 12 -48 3 0 -5
-12 -4 -27 2 -21 8 -28 7 -35 -5 -7 -13 -12 -13 -35 -1 -21 11 -29 12 -35 2
-6 -9 -8 -9 -8 1 0 19 -20 14 -21 -5 0 -16 -1 -15 -8 2 -8 19 -8 19 -19 0 -8
-15 -11 -16 -12 -5 0 11 -12 15 -50 15 -34 0 -49 -4 -46 -12 3 -7 -4 -7 -22 3
-24 12 -28 12 -34 -4 -5 -13 -7 -13 -7 -2 -1 10 -11 15 -31 15 -20 0 -29 -4
-25 -13 3 -8 -3 -7 -19 4 -22 14 -25 14 -29 -3 -4 -17 -5 -17 -6 0 -1 15 -3
16 -15 5 -8 -7 -12 -17 -9 -21 3 -4 -1 -15 -9 -24 -7 -10 -8 -14 -1 -10 8 5
11 -10 11 -53 -1 -37 5 -66 13 -77 9 -11 10 -14 2 -9 -9 5 -13 0 -13 -14 0
-12 4 -19 8 -16 4 2 9 -5 9 -17 1 -14 -1 -17 -5 -9 -5 6 -8 -4 -8 -26 -1 -20
1 -29 3 -19 3 9 8 15 13 12 12 -8 -1 -46 -14 -39 -6 3 -3 -1 6 -9 20 -16 25
-32 7 -21 -8 4 -8 1 0 -14 6 -12 11 -25 10 -29 -4 -27 2 -63 11 -58 6 3 10 1
10 -4 0 -6 -4 -11 -10 -11 -5 0 -10 -4 -10 -10 0 -5 6 -7 13 -4 10 3 13 -8 12
-46 -1 -28 2 -44 7 -37 4 6 8 8 9 2 0 -5 2 -23 4 -38 1 -16 8 -32 14 -37 7 -4
12 -10 12 -14 -1 -3 0 -7 0 -8 1 -2 3 -16 4 -33 2 -16 3 -34 4 -39 1 -5 7 -3
15 3 11 9 13 6 10 -19 -2 -19 1 -30 9 -30 8 0 7 -4 -3 -10 -13 -8 -12 -10 3
-10 12 0 17 -8 17 -30 0 -16 5 -30 11 -30 5 0 7 5 3 12 -4 7 -3 8 4 4 7 -4 12
-23 12 -42 0 -21 5 -33 12 -31 7 1 13 -5 14 -13 3 -37 5 -41 14 -35 8 5 15
-22 11 -47 0 -4 6 -5 14 -2 11 5 15 -1 15 -21 0 -15 4 -24 10 -20 6 3 11 1 11
-4 1 -10 3 -18 8 -38 2 -5 6 1 11 12 8 17 9 18 11 3 1 -10 3 -22 4 -28 1 -5 3
-16 4 -22 1 -9 4 -8 11 2 8 13 10 12 10 -3 0 -10 7 -25 15 -34 8 -8 13 -19 10
-24 -4 -5 -1 -9 4 -9 12 0 51 -36 51 -46 0 -10 42 -44 54 -44 6 0 4 -5 -4 -10
-13 -9 -13 -10 0 -11 8 -1 18 -1 23 0 4 0 7 -5 7 -12 0 -7 9 -18 20 -25 12 -7
18 -18 13 -25 -4 -7 2 -5 12 3 17 14 18 13 12 -4 -5 -14 -3 -17 8 -12 8 3 14
2 14 -2 -3 -20 3 -32 16 -32 8 0 15 -8 16 -17 0 -17 1 -17 7 -1 6 15 9 13 20
-11 7 -17 20 -28 30 -27 9 0 16 -5 14 -11 -1 -8 9 -13 25 -13 22 0 25 -2 13
-10 -12 -7 -8 -11 17 -16 21 -4 30 -11 26 -20 -3 -9 2 -12 16 -9 14 2 21 -1
21 -11 0 -12 19 -19 44 -15 5 1 6 -5 3 -14 -4 -8 -2 -16 3 -16 19 -3 25 -5 46
-17 12 -6 25 -8 29 -4 5 4 5 -1 2 -10 -3 -10 -2 -20 3 -23 6 -4 10 2 10 11 0
17 1 16 13 -1 8 -10 19 -15 26 -11 7 5 10 2 9 -5 -2 -7 3 -14 10 -15 6 -1 15
-3 20 -4 4 -1 10 -2 15 -1 4 0 7 -6 7 -14 0 -8 3 -14 8 -14 24 4 52 -2 47 -11
-5 -9 16 -14 31 -7 3 1 10 -6 15 -16 6 -9 15 -15 20 -11 5 3 21 -2 36 -11 14
-9 23 -13 20 -8 -4 5 0 10 8 10 8 0 13 -3 12 -6 -1 -3 2 -7 7 -8 5 -1 13 -7
17 -15 7 -11 9 -11 9 1 0 10 3 11 13 2 8 -6 18 -7 22 -3 5 4 5 1 1 -6 -4 -7
-12 -10 -17 -7 -5 4 -9 2 -9 -4 0 -5 14 -8 30 -6 17 2 30 -1 30 -7 0 -7 5 -6
14 1 9 7 17 8 20 2 3 -5 0 -12 -6 -14 -7 -3 1 -6 17 -8 17 -1 44 -2 60 -4 17
-1 29 -7 27 -13 -1 -8 13 -12 38 -12 22 0 40 -4 40 -10 0 -5 8 -10 18 -10 10
0 24 -6 31 -12 11 -11 13 -10 7 0 -5 8 0 11 16 8 13 -2 22 -10 20 -17 -3 -10
0 -10 12 1 12 9 20 9 29 2 7 -6 22 -11 32 -11 77 -1 125 -6 125 -14 0 -5 -7
-7 -15 -3 -8 3 -15 2 -15 -3 0 -5 37 -9 81 -10 86 -1 103 -6 93 -23 -4 -7 -2
-8 5 -4 6 4 9 11 6 16 -2 4 8 7 24 6 16 0 27 -4 25 -7 -2 -4 3 -9 11 -12 9 -4
12 -1 9 7 -3 7 2 13 10 13 8 0 13 -4 10 -9 -6 -10 -9 -9 97 -12 47 -1 91 -6
99 -11 9 -5 11 -4 6 3 -11 19 5 14 21 -5 8 -10 12 -13 9 -7 -7 14 32 26 40 13
3 -6 12 -5 22 3 14 11 15 10 8 -6 -7 -20 -7 -20 15 0 22 18 22 18 15 0 -5 -16
-4 -17 9 -6 8 7 15 9 15 5 0 -4 8 -1 17 6 15 12 16 12 10 -5 -7 -17 -5 -17 9
-5 19 16 41 18 66 7 10 -5 20 -4 23 2 5 8 11 8 20 0 10 -8 15 -7 19 2 5 10 7
10 12 1 4 -8 13 -9 28 -3 16 6 28 5 36 -3 7 -7 10 -7 7 -1 -4 6 14 11 51 11
81 2 84 2 78 11 -3 5 2 9 10 9 9 0 13 -6 9 -16 -5 -12 -2 -12 13 2 24 22 38
22 21 0 -13 -17 -13 -17 7 -1 24 21 44 23 44 6 0 -10 2 -10 8 -1 4 7 29 13 55
14 30 2 46 6 44 13 -3 7 21 12 66 14 42 2 74 8 79 15 6 9 8 9 8 0 0 -17 15
-16 32 1 8 8 28 13 45 11 25 -2 30 1 25 14 -5 14 -4 14 13 1 11 -9 16 -10 11
-3 -4 7 -2 13 3 13 6 0 11 -5 11 -11 0 -6 7 -4 15 4 8 9 23 13 34 10 10 -3 22
1 26 8 5 8 4 10 -3 5 -7 -4 -12 -2 -12 3 0 15 13 14 29 -2 11 -9 13 -9 7 1 -5
8 3 12 26 13 18 1 37 1 42 0 5 -1 4 4 -2 12 -10 12 -8 14 13 12 18 -2 25 2 26
13 0 11 2 12 6 5 2 -7 12 -13 21 -13 15 0 15 2 2 10 -13 8 -13 10 3 11 9 1 22
3 27 4 6 1 15 3 21 4 5 0 7 7 3 14 -5 7 0 6 11 -3 11 -9 16 -10 11 -2 -5 8 0
12 13 12 15 0 19 5 14 18 -5 14 -3 13 10 -3 13 -16 16 -17 17 -5 0 9 10 16 22
17 11 1 25 8 29 14 4 7 14 14 23 15 9 1 23 9 32 18 8 9 20 14 25 11 5 -4 9 -1
9 5 0 6 5 8 10 5 6 -3 10 -1 10 4 0 6 7 11 15 11 8 0 15 6 15 13 0 9 2 9 9 -1
6 -11 9 -9 14 6 3 14 17 23 43 28 22 4 33 9 27 11 -14 5 -18 24 -5 22 24 -4
42 3 42 16 0 8 3 14 8 14 4 -1 16 -1 27 0 17 1 18 3 5 11 -13 8 -13 10 3 11
37 3 42 5 39 17 -1 7 3 12 9 12 5 0 7 5 3 12 -4 6 -3 8 2 5 13 -8 39 9 39 25
0 7 6 14 13 14 6 1 17 2 24 3 6 0 9 4 5 7 -8 9 14 30 41 38 12 4 20 12 17 17
-6 8 8 13 27 10 4 0 5 6 2 14 -4 10 0 15 11 15 11 0 15 5 12 14 -4 10 -1 13 9
9 10 -4 17 2 21 16 3 11 12 21 19 21 13 0 18 12 15 33 -2 12 17 8 22 -5 5 -11
11 23 9 43 -1 3 10 5 23 4 17 -2 22 1 18 11 -3 8 0 14 6 14 6 0 11 7 11 16 0
8 5 12 10 9 6 -3 10 0 10 8 0 8 8 18 17 21 15 6 15 8 3 16 -11 7 -11 10 -2 11
27 3 31 4 38 12 4 4 2 7 -5 7 -7 0 -9 5 -6 11 4 6 14 8 22 5 11 -4 13 -2 10 9
-4 8 -2 17 4 20 5 4 7 11 4 16 -3 5 1 6 9 3 12 -4 16 0 16 16 0 11 4 19 9 16
11 -7 23 22 14 36 -3 7 -1 8 6 4 11 -7 20 7 25 38 1 8 6 19 11 23 4 4 5 3 1
-4 -3 -6 -2 -15 4 -18 6 -4 10 -3 9 2 -4 22 3 41 20 60 14 15 17 23 8 32 -8 8
-7 11 6 11 11 0 17 8 17 24 0 14 4 28 10 31 5 3 7 0 4 -8 -3 -8 -1 -17 4 -21
5 -3 8 9 7 25 -1 20 6 38 19 52 12 11 14 16 6 12 -13 -8 -13 -7 -1 8 7 9 10
17 5 17 -5 0 -1 6 8 13 9 8 19 27 22 43 2 16 5 31 5 34 1 3 5 0 9 -7 5 -7 8 3
9 26 2 48 6 64 17 72 5 4 9 18 9 33 0 14 4 26 9 26 6 0 6 6 -1 14 -10 11 -8
15 6 19 17 4 17 5 0 6 -10 0 -15 6 -12 11 4 6 10 8 15 5 4 -3 10 2 13 10 4 9
1 12 -8 8 -13 -4 -13 -2 -1 22 8 15 12 34 9 41 -3 8 1 14 8 14 11 0 11 3 -1
10 -13 9 -13 11 0 20 8 5 10 10 5 10 -14 0 -13 53 1 62 13 9 17 471 4 463 -5
-3 -12 0 -16 6 -4 7 -3 9 3 6 6 -4 13 -1 16 7 3 8 -1 17 -10 20 -14 6 -14 9 3
27 13 14 14 18 3 14 -10 -4 -15 1 -16 15 -1 13 2 18 10 13 8 -4 7 -1 -1 9 -8
9 -13 25 -12 35 4 34 0 44 -12 37 -8 -5 -7 0 2 11 8 10 10 16 4 12 -7 -4 -15
0 -18 9 -4 12 -2 15 9 11 8 -4 17 -2 20 4 4 5 3 9 -2 8 -23 -4 -29 4 -28 41 1
26 -2 36 -9 30 -8 -5 -12 7 -14 38 -2 26 -8 49 -14 53 -7 4 -5 8 3 12 10 4 10
6 -2 6 -9 1 -16 9 -16 19 0 9 -1 26 -2 37 l-2 20 -9 -20 c-7 -17 -9 -15 -9 13
-1 17 -6 32 -12 32 -5 0 -8 4 -4 9 3 5 1 12 -5 16 -5 3 -10 18 -10 32 0 18 -4
24 -15 19 -11 -4 -15 2 -16 22 -1 15 -1 31 0 35 1 5 -2 6 -7 3 -4 -2 -14 4
-21 16 -7 11 -8 17 -2 13 6 -3 11 -1 11 4 0 6 -7 11 -15 11 -8 0 -16 7 -16 15
-1 8 -2 19 -3 24 0 5 -11 18 -23 29 -13 10 -24 29 -26 40 -2 12 -7 25 -12 29
-4 5 -5 3 -1 -4 3 -6 2 -14 -4 -18 -6 -4 -10 6 -10 24 0 17 -5 31 -11 31 -5 0
-7 -6 -3 -12 5 -9 4 -10 -4 -3 -6 6 -13 21 -15 35 -2 13 -9 26 -15 28 -7 2
-12 11 -13 20 0 14 -2 13 -9 -3 l-9 -20 -1 20 c-2 11 -2 23 -1 28 0 4 -6 7
-14 7 -8 0 -15 7 -15 15 0 8 -5 15 -11 15 -5 0 -7 5 -4 10 3 6 -1 10 -10 10
-11 0 -15 5 -11 16 3 8 2 12 -3 9 -5 -3 -12 4 -16 15 -3 11 -13 20 -20 20 -9
0 -12 6 -9 15 5 11 2 13 -10 9 -10 -4 -16 -1 -16 9 0 8 -11 23 -25 33 -14 10
-25 25 -25 32 0 7 -5 10 -10 7 -6 -4 -7 -12 -4 -18 4 -7 3 -8 -2 -4 -9 9 -10
11 -13 45 -2 15 -3 15 -10 -3 -7 -17 -8 -17 -15 8 -3 15 -13 27 -22 27 -10 0
-14 6 -10 15 4 11 0 15 -12 13 -10 -2 -16 2 -14 11 3 12 1 12 -14 0 -13 -10
-16 -11 -10 -1 5 9 1 15 -13 19 -11 3 -18 9 -15 14 3 5 -2 9 -10 9 -9 0 -16 7
-16 15 0 8 -7 15 -15 15 -8 0 -15 5 -15 11 0 8 -5 7 -15 -1 -13 -11 -14 -10
-9 4 4 10 1 16 -9 16 -9 0 -19 10 -22 21 -6 17 -9 19 -16 8 -7 -11 -9 -10 -9
5 0 11 -3 17 -6 13 -4 -3 -14 2 -23 11 -9 10 -11 11 -6 3 7 -10 1 -8 -17 4
-15 11 -28 26 -28 34 0 7 -6 11 -13 8 -8 -3 -20 -1 -28 5 -11 8 -10 9 4 4 11
-3 16 -2 12 4 -3 6 -18 10 -33 10 -21 0 -24 2 -12 10 10 7 11 10 3 11 -7 1
-17 3 -23 4 -5 1 -17 3 -25 4 -8 0 -15 6 -15 12 0 5 5 7 12 3 6 -4 8 -3 4 4
-3 6 -15 9 -26 7 -12 -2 -18 0 -15 6 7 11 -35 28 -52 22 -17 -7 -17 14 0 20 6
3 -2 6 -19 6 -17 1 -37 8 -44 16 -7 8 -16 13 -20 10 -4 -3 -13 2 -20 10 -7 8
-18 15 -25 15 -7 0 -15 7 -19 15 -3 9 -18 15 -35 15 -17 0 -31 6 -35 16 -3 8
-10 13 -15 9 -5 -3 -12 -1 -16 5 -3 5 -1 10 5 10 6 0 8 5 4 11 -4 7 -9 7 -13
2 -4 -6 -17 -5 -34 2 -15 6 -25 13 -23 16 4 4 -22 9 -61 12 -9 0 -10 4 -3 12
8 9 4 11 -15 7 -17 -3 -25 0 -25 9 0 11 -2 11 -10 -1 -8 -13 -10 -12 -10 3 0
15 -13 21 -47 20 -7 -1 -13 5 -13 13 0 10 -14 14 -47 15 -36 0 -43 3 -28 9 18
8 18 9 -5 9 -15 1 -32 7 -39 14 -11 10 -12 9 -6 -1 6 -11 3 -11 -14 0 -12 7
-21 17 -21 23 0 5 -5 3 -10 -5 -6 -10 -10 -11 -10 -2 0 6 -9 12 -20 12 -11 0
-20 5 -20 10 0 6 -15 10 -34 10 -19 0 -38 5 -42 12 -4 6 -3 8 4 4 6 -3 13 -3
16 2 2 4 -3 9 -12 10 -32 3 -47 8 -61 16 -8 5 -28 11 -45 13 -17 2 -32 8 -34
13 -2 6 -13 10 -23 10 -14 0 -18 4 -13 13 5 7 0 6 -11 -3 -17 -13 -18 -13 -13
0 4 12 -1 16 -20 18 -14 1 -29 7 -33 13 -4 8 -8 7 -12 -2 -4 -10 -6 -10 -6 2
-1 9 -7 17 -13 16 -37 -1 -58 4 -53 13 6 9 -8 14 -27 11 -5 0 -8 4 -8 10 0 8
-4 8 -14 0 -11 -10 -16 -9 -24 5 -5 9 -21 17 -36 17 -14 0 -26 5 -26 11 0 6
-12 13 -26 14 -14 1 -32 8 -39 16 -8 8 -24 12 -35 9 -14 -4 -20 0 -20 11 0 10
-5 14 -10 11 -6 -4 -22 0 -35 9 -13 9 -28 16 -32 16 -4 0 -1 -5 7 -10 9 -6 10
-10 3 -10 -7 0 -16 6 -20 13 -4 6 -14 12 -20 13 -37 3 -42 5 -37 17 3 10 -6
13 -35 13 -30 -1 -41 3 -44 16 -4 12 -11 15 -27 11 -15 -4 -21 -2 -17 4 7 12
-14 23 -43 23 -10 0 -20 6 -23 13 -3 8 -19 13 -41 12 -23 0 -36 4 -36 12 0 12
-28 18 -70 15 -11 0 -10 3 4 14 19 13 18 14 -13 10 -19 -2 -38 2 -47 11 -8 8
-31 17 -50 18 -37 4 -60 15 -31 15 9 0 17 4 17 8 0 11 -31 9 -49 -3 -10 -5
-12 -4 -7 3 5 8 -1 12 -14 12 -12 0 -18 4 -15 10 4 6 -8 10 -30 10 -20 0 -34
4 -31 9 3 5 -1 12 -10 15 -25 10 -27 7 -13 -11 11 -15 10 -14 -9 1 -12 11 -22
16 -22 11 0 -4 -6 -2 -13 4 -8 6 -18 7 -23 3 -4 -4 -3 1 4 10 12 14 10 16 -13
14 -14 -2 -29 3 -33 11 -5 8 -18 15 -29 16 -12 0 -20 5 -17 9 3 4 12 5 22 2
14 -5 14 -3 -2 10 -18 15 -18 16 -2 16 9 0 14 5 11 10 -4 6 -11 8 -16 5 -5 -4
-9 -1 -9 4 0 6 5 11 10 11 6 0 10 4 10 10 0 5 -6 7 -13 4 -19 -7 -16 49 3 58
12 5 11 7 -4 7 -14 1 -16 4 -7 14 6 8 8 17 5 20 -12 11 -12 97 0 97 6 0 5 4
-3 9 -11 7 -10 11 5 20 15 8 16 10 3 11 -12 0 -14 8 -11 30 2 16 8 28 12 25
11 -7 17 14 14 53 -1 17 3 32 8 32 6 0 5 7 -2 15 -7 9 -10 18 -6 22 3 3 6 1 6
-5 0 -19 16 -14 17 6 3 46 8 62 20 66 7 3 13 15 13 27 0 12 12 33 28 47 15 13
21 21 13 17 -9 -5 -7 1 4 19 10 14 23 26 31 26 8 0 11 6 7 17 -5 12 -2 15 10
10 9 -3 16 -3 16 1 -3 20 2 33 11 27 6 -3 10 1 10 9 0 9 7 16 15 16 8 0 15 7
15 16 0 8 4 13 10 9 5 -3 18 3 30 15 11 11 25 20 31 20 5 0 7 5 4 10 -5 9 15
15 38 11 12 -2 8 17 -5 22 -7 3 2 6 20 6 21 1 32 6 32 16 0 8 5 15 11 15 5 0
8 -4 5 -9 -4 -5 5 -4 19 2 14 7 25 17 25 23 0 7 14 11 35 9 26 -1 32 1 25 10
-8 9 -4 12 15 10 14 -2 27 0 29 4 3 4 21 7 41 6 22 -1 39 3 42 11 2 7 15 11
28 8 15 -3 25 2 29 12 5 12 10 13 19 6 18 -15 57 -11 57 6 0 7 5 10 10 7 6 -4
8 -12 4 -18 -3 -7 2 -3 10 7 16 20 16 20 16 0 1 -16 2 -17 10 -3 7 12 21 15
51 13 24 -2 48 -5 55 -8 8 -3 16 -1 20 5 4 6 12 5 22 -3 12 -10 14 -10 8 0 -4
6 -2 12 3 12 11 0 15 -15 11 -35 -1 -5 7 -2 18 8 22 20 38 23 26 4 -5 -7 0 -4
10 8 19 20 19 20 14 0 -4 -18 0 -20 54 -19 32 1 69 -5 83 -12 14 -7 23 -9 20
-4 -4 6 -2 10 4 10 5 0 11 -5 13 -11 2 -6 20 -11 40 -12 20 0 36 -5 35 -11 -1
-6 8 -11 21 -12 40 -3 42 -4 39 -16 -1 -8 7 -12 23 -10 18 2 21 0 12 -6 -11
-7 -8 -11 12 -16 20 -5 26 -13 26 -35 0 -16 6 -31 15 -35 9 -3 15 -19 15 -41
0 -19 5 -35 10 -35 6 0 10 -5 10 -11 0 -5 -4 -7 -10 -4 -15 9 -12 -4 5 -22 8
-8 13 -18 10 -23 -3 -4 1 -10 9 -13 9 -4 13 -16 12 -32 -2 -14 0 -28 4 -30 5
-3 7 -16 6 -30 -2 -13 0 -22 5 -20 12 8 18 -7 21 -54 1 -25 8 -45 15 -48 8 -3
13 -13 12 -22 -4 -21 10 -61 20 -61 5 0 8 -8 8 -17 0 -37 3 -44 16 -37 8 5 8
2 -2 -9 -9 -11 -10 -17 -2 -17 6 0 11 -12 11 -26 0 -15 8 -33 18 -41 16 -14
16 -14 -3 -9 -18 5 -18 5 -4 -6 9 -7 14 -18 12 -25 -3 -8 9 -10 36 -8 23 2 41
-1 41 -5 0 -5 -13 -7 -30 -5 -16 2 -32 0 -34 -4 -3 -4 69 -7 159 -8 90 0 162
4 159 8 -2 4 1 11 7 15 7 4 9 3 5 -4 -3 -6 -2 -13 4 -17 5 -3 10 0 10 8 0 9 9
14 24 13 13 0 22 -6 19 -11 -2 -6 8 -11 22 -11 17 0 24 4 21 13 -3 7 -1 13 4
13 6 0 10 -7 10 -15 0 -10 9 -14 24 -13 14 1 22 6 19 11 -3 5 -12 6 -21 2 -9
-3 -13 -2 -8 2 12 12 54 10 50 -2 -3 -7 11 -11 36 -11 25 0 40 4 40 12 0 6 11
11 24 10 13 0 22 -6 19 -11 -2 -6 8 -11 22 -11 17 0 24 4 21 13 -3 7 -1 13 4
13 6 0 10 -7 10 -15 0 -10 9 -14 24 -13 14 1 22 6 19 11 -3 5 -12 6 -21 2 -9
-3 -13 -2 -8 2 12 12 54 11 50 -2 -3 -6 16 -11 50 -11 31 0 53 3 50 8 -4 5
-13 7 -22 3 -9 -3 -13 -2 -8 2 12 12 54 10 50 -2 -3 -7 11 -11 36 -12 22 0 40
3 40 7 0 5 -15 6 -32 3 -18 -3 -30 -2 -26 2 4 5 46 9 93 10 47 1 81 -2 74 -6
-7 -4 -21 -6 -31 -4 -10 2 -18 0 -18 -4 0 -4 34 -8 75 -7 41 0 75 3 75 7 0 3
-18 6 -40 5 -21 -1 -37 0 -34 3 3 4 55 6 114 6 60 0 104 -3 98 -6 -6 -4 -20
-6 -30 -4 -10 2 -18 0 -18 -4 0 -4 34 -8 75 -7 41 0 75 3 75 7 0 3 -18 6 -40
5 -21 -1 -37 0 -34 3 3 4 55 6 114 6 60 0 104 -3 98 -6 -6 -4 -20 -6 -30 -4
-10 2 -18 0 -18 -5 0 -4 25 -8 55 -7 30 1 55 5 55 9 0 4 -10 5 -21 3 -12 -3
-19 -1 -15 3 11 10 116 11 110 0 -3 -5 -12 -7 -20 -4 -8 3 -14 1 -14 -4 0 -5
11 -9 25 -8 14 1 25 8 25 14 0 7 3 20 7 30 3 10 2 15 -3 12 -5 -4 -8 15 -6 43
3 31 0 49 -7 49 -6 0 -11 9 -11 21 0 11 5 17 10 14 6 -4 7 -11 4 -17 -4 -7 -2
-8 5 -4 8 6 9 12 2 20 -6 7 -8 16 -4 20 4 4 1 5 -7 1 -11 -4 -15 3 -14 27 0
18 -5 39 -10 47 -9 12 -8 13 4 6 13 -8 13 -7 1 8 -7 9 -9 17 -4 17 5 0 10 7
10 15 0 18 -14 20 -20 3 -2 -7 -4 -1 -3 14 0 14 5 24 9 21 5 -3 4 4 -3 16 -6
12 -12 45 -13 73 0 28 -3 46 -5 40 -10 -30 -22 -7 -22 43 0 45 -3 55 -17 56
-11 0 -13 3 -6 6 9 3 10 10 3 24 -6 10 -7 19 -3 19 4 0 -1 6 -10 13 -10 7 -17
29 -19 55 -1 24 -6 46 -12 49 -5 3 -6 1 -2 -5 3 -6 3 -13 -2 -16 -4 -2 -9 10
-10 27 -1 18 -9 37 -18 44 -14 10 -13 12 3 16 17 4 17 5 -1 6 -11 1 -16 6 -13
15 3 8 0 17 -7 19 -8 3 -17 23 -21 44 -6 32 -9 35 -15 18 -7 -16 -9 -14 -9 13
-1 17 -5 32 -11 32 -5 0 -10 5 -10 11 0 5 6 7 13 4 6 -4 3 1 -7 9 -11 9 -16
16 -10 17 5 0 0 4 -11 8 -11 5 -20 14 -20 22 -1 8 -6 13 -13 11 -7 -1 -11 1
-11 5 5 31 -3 55 -15 50 -10 -4 -14 0 -11 13 2 12 -7 28 -26 42 -16 13 -29 31
-29 41 0 9 -7 17 -15 17 -8 0 -15 5 -15 10 0 6 -7 10 -15 10 -8 0 -15 9 -15
21 0 11 -4 17 -10 14 -5 -3 -10 1 -10 9 0 9 -7 16 -16 16 -8 0 -12 5 -9 10 3
6 -1 10 -9 10 -9 0 -16 7 -16 15 0 8 -7 15 -15 15 -8 0 -15 7 -15 15 0 8 -7
15 -15 15 -8 0 -15 5 -15 10 0 6 -7 10 -16 10 -11 0 -14 5 -10 16 4 11 2 15
-7 11 -8 -3 -20 3 -28 14 -7 10 -22 19 -32 19 -10 0 -15 5 -12 10 8 13 -14 42
-26 35 -4 -3 -17 5 -29 17 -19 21 -21 21 -14 3 6 -18 5 -18 -7 -4 -8 9 -21 19
-29 22 -11 4 -9 6 5 7 12 0 -2 10 -35 25 -30 13 -54 28 -53 34 2 5 -6 8 -17 6
-12 -2 -18 0 -15 6 7 11 -36 29 -49 21 -5 -3 -6 2 -3 12 4 10 2 16 -6 15 -30
-4 -47 2 -47 16 0 13 -25 21 -52 16 -5 0 -8 4 -8 10 0 5 -4 7 -10 4 -5 -3 -10
-2 -10 4 0 6 -6 8 -14 5 -7 -3 -16 2 -19 10 -4 10 -19 16 -42 16 -24 0 -35 4
-35 15 0 9 -9 15 -23 15 -13 0 -27 4 -32 9 -6 5 -23 11 -40 13 -16 1 -38 10
-48 18 -9 8 -23 15 -30 16 -6 0 -20 2 -30 2 -10 1 -15 7 -12 12 3 6 2 10 -4
10 -5 0 -12 -8 -14 -17 -4 -17 -5 -17 -6 0 -1 13 -10 17 -46 17 -25 0 -45 5
-45 10 0 6 -15 10 -33 10 -18 0 -39 6 -46 13 -11 10 -13 10 -7 0 4 -7 3 -13
-3 -13 -5 0 -12 6 -14 13 -4 9 -8 8 -17 -3 -10 -13 -11 -12 -6 4 4 13 2 17 -8
13 -7 -3 -19 0 -26 6 -10 9 -11 9 -5 -2 6 -11 3 -11 -15 2 -18 12 -28 14 -43
5 -17 -9 -19 -8 -13 8 6 18 5 18 -9 0 -14 -19 -15 -19 -15 -2 0 16 -2 17 -17
5 -11 -10 -14 -10 -9 -1 4 6 2 12 -3 12 -6 0 -11 -4 -11 -10 0 -5 -5 -10 -11
-10 -5 0 -7 5 -4 10 5 9 -82 16 -124 10 -8 -1 -17 4 -22 11 -8 14 -109 23
-109 10 0 -5 11 -7 25 -6 14 2 25 0 25 -4 0 -4 -15 -7 -34 -7 -22 1 -32 5 -29
13 3 7 -2 13 -12 13 -10 0 -13 -4 -9 -12 6 -10 5 -10 -7 -1 -10 8 -81 11 -231
11 -193 1 -219 -1 -229 -16 -10 -16 -10 -16 -5 1 4 11 0 17 -11 17 -9 0 -22
-8 -29 -17 -10 -13 -13 -14 -9 -3 4 11 -3 16 -25 16 -16 1 -30 -3 -30 -8z
m710 -10 c0 -11 -28 -10 -35 1 -3 6 4 9 15 8 11 -1 20 -5 20 -9z m-240 -1094
c0 -8 -19 -13 -24 -6 -3 5 1 9 9 9 8 0 15 -2 15 -3z m-1096 -612 c3 -5 -1 -9
-9 -9 -8 0 -12 4 -9 9 3 4 7 8 9 8 2 0 6 -4 9 -8z m1806 -223 c0 -4 -11 -6
-24 -5 -13 0 -22 4 -20 8 6 9 44 6 44 -3z m80 0 c0 -4 -11 -6 -24 -5 -13 0
-22 4 -20 8 6 9 44 6 44 -3z m74 2 c-8 -8 -43 -8 -38 0 2 4 13 7 24 6 10 -1
17 -3 14 -6z m266 -1 c0 -5 -2 -10 -4 -10 -3 0 -8 5 -11 10 -3 6 -1 10 4 10 6
0 11 -4 11 -10z m240 0 c0 -5 -2 -10 -4 -10 -3 0 -8 5 -11 10 -3 6 -1 10 4 10
6 0 11 -4 11 -10z m740 -1994 c0 -3 -4 -8 -10 -11 -5 -3 -10 -1 -10 4 0 6 5
11 10 11 6 0 10 -2 10 -4z m237 -1186 c-2 -23 -10 -17 -12 10 -1 10 2 17 6 14
4 -2 7 -13 6 -24z m-1902 -680 c3 -5 1 -10 -4 -10 -6 0 -11 5 -11 10 0 6 2 10
4 10 3 0 8 -4 11 -10z m-862 -665 c-3 -9 -8 -14 -10 -11 -3 3 -2 9 2 15 9 16
15 13 8 -4z"/>
<path d="M2555 6880 c-3 -6 1 -7 9 -4 18 7 21 14 7 14 -6 0 -13 -4 -16 -10z"/>
<path d="M4670 6800 c0 -5 5 -10 11 -10 5 0 7 5 4 10 -3 6 -8 10 -11 10 -2 0
-4 -4 -4 -10z"/>
<path d="M1215 5800 c3 -5 8 -10 11 -10 2 0 4 5 4 10 0 6 -5 10 -11 10 -5 0
-7 -4 -4 -10z"/>
<path d="M5750 5700 c0 -5 5 -10 11 -10 5 0 7 5 4 10 -3 6 -8 10 -11 10 -2 0
-4 -4 -4 -10z"/>
<path d="M4015 5531 c-3 -5 -2 -12 3 -15 5 -3 9 1 9 9 0 17 -3 19 -12 6z"/>
<path d="M4540 5040 c0 -5 5 -10 11 -10 5 0 7 5 4 10 -3 6 -8 10 -11 10 -2 0
-4 -4 -4 -10z"/>
<path d="M4780 5040 c0 -5 5 -10 11 -10 5 0 7 5 4 10 -3 6 -8 10 -11 10 -2 0
-4 -4 -4 -10z"/>
<path d="M5140 5040 c0 -5 5 -10 11 -10 5 0 7 5 4 10 -3 6 -8 10 -11 10 -2 0
-4 -4 -4 -10z"/>
<path d="M5350 5040 c0 -5 5 -10 10 -10 6 0 10 5 10 10 0 6 -4 10 -10 10 -5 0
-10 -4 -10 -10z"/>
<path d="M5380 5040 c0 -5 5 -10 11 -10 5 0 7 5 4 10 -3 6 -8 10 -11 10 -2 0
-4 -4 -4 -10z"/>
<path d="M5590 5040 c0 -5 5 -10 10 -10 6 0 10 5 10 10 0 6 -4 10 -10 10 -5 0
-10 -4 -10 -10z"/>
<path d="M5620 5040 c0 -5 5 -10 11 -10 5 0 7 5 4 10 -3 6 -8 10 -11 10 -2 0
-4 -4 -4 -10z"/>
<path d="M5790 5040 c0 -5 5 -10 10 -10 6 0 10 5 10 10 0 6 -4 10 -10 10 -5 0
-10 -4 -10 -10z"/>
<path d="M4706 3968 c3 -5 10 -6 15 -3 13 9 11 12 -6 12 -8 0 -12 -4 -9 -9z"/>
<path d="M4395 1470 c-3 -5 -1 -10 4 -10 6 0 11 5 11 10 0 6 -2 10 -4 10 -3 0
-8 -4 -11 -10z"/>
<path d="M3866 1152 c-3 -5 1 -9 9 -9 8 0 12 4 9 9 -3 4 -7 8 -9 8 -2 0 -6 -4
-9 -8z"/>
<path d="M3380 1122 c0 -6 13 -9 29 -8 34 1 32 9 -4 13 -14 2 -25 0 -25 -5z"/>
<path d="M3487 1119 c7 -7 15 -10 18 -7 3 3 -2 9 -12 12 -14 6 -15 5 -6 -5z"/>
<path d="M2540 140 c-9 -6 -10 -10 -3 -10 6 0 15 5 18 10 8 12 4 12 -15 0z"/>
<path d="M2866 58 c3 -5 10 -6 15 -3 13 9 11 12 -6 12 -8 0 -12 -4 -9 -9z"/>
<path d="M4130 58 c0 -10 17 -10 24 0 3 5 -1 9 -9 9 -8 0 -15 -4 -15 -9z"/>
<path d="M3588 3 c6 -2 18 -2 25 0 6 3 1 5 -13 5 -14 0 -19 -2 -12 -5z"/>
</g>
</svg>
